<svg width="17" height="20" viewBox="0 0 17 20" fill="none" xmlns="http://www.w3.org/2000/svg">
<path d="M16.368 8.23251C16.3708 7.19939 16.17 6.17584 15.7772 5.2203C15.3844 4.26476 14.8072 3.39595 14.0786 2.66347C12.6072 1.18415 10.6084 0.349958 8.5219 0.344388C6.43541 0.338819 4.43217 1.16233 2.95285 2.63377C1.47354 4.1052 0.639347 6.10402 0.633778 8.19051C0.6153 10.6145 1.31895 12.989 2.65506 15.0116C3.99116 17.0341 5.89921 18.613 8.13603 19.5471C8.25037 19.5989 8.37451 19.6255 8.50003 19.625C8.62646 19.6252 8.75147 19.5984 8.86665 19.5463C11.0967 18.615 13 17.0427 14.3354 15.0285C15.6709 13.0144 16.3783 10.6491 16.368 8.23251ZM8.50003 17.7875C6.65547 16.9754 5.09129 15.6375 4.00311 13.9411C2.91493 12.2448 2.35107 10.2652 2.38203 8.25001C2.38203 7.44659 2.54027 6.65103 2.84773 5.90876C3.15519 5.16649 3.60584 4.49204 4.17395 3.92393C4.74206 3.35583 5.4165 2.90518 6.15877 2.59772C6.90104 2.29026 7.6966 2.13201 8.50003 2.13201C9.30345 2.13201 10.099 2.29026 10.8413 2.59772C11.5836 2.90518 12.258 3.35583 12.8261 3.92393C13.3942 4.49204 13.8449 5.16649 14.1523 5.90876C14.4598 6.65103 14.618 7.44659 14.618 8.25001C14.618 8.26839 14.618 8.28939 14.618 8.30689C14.6392 10.3127 14.0707 12.2806 12.983 13.9661C11.8954 15.6516 10.3365 16.9804 8.50003 17.7875ZM10.25 8.25001C10.25 8.59613 10.1474 8.93447 9.9551 9.22226C9.76281 9.51005 9.48949 9.73435 9.16972 9.8668C8.84995 9.99926 8.49809 10.0339 8.15862 9.96639C7.81915 9.89886 7.50733 9.73219 7.26259 9.48745C7.01785 9.24271 6.85118 8.93089 6.78365 8.59142C6.71613 8.25196 6.75078 7.90009 6.88324 7.58032C7.01569 7.26055 7.23999 6.98723 7.52778 6.79494C7.81557 6.60265 8.15391 6.50001 8.50003 6.50001C8.96416 6.50001 9.40928 6.68439 9.73746 7.01258C10.0657 7.34077 10.25 7.78588 10.25 8.25001Z" fill="#535761"/>
</svg>
