<svg width="21" height="20" viewBox="0 0 21 20" fill="none" xmlns="http://www.w3.org/2000/svg">
<path d="M10.5 0.375C8.59636 0.375 6.73546 0.939496 5.15264 1.9971C3.56982 3.05471 2.33616 4.55793 1.60766 6.31667C0.87917 8.07541 0.688563 10.0107 1.05995 11.8777C1.43133 13.7448 2.34802 15.4598 3.6941 16.8059C5.04018 18.152 6.75519 19.0687 8.62226 19.4401C10.4893 19.8114 12.4246 19.6208 14.1833 18.8923C15.9421 18.1638 17.4453 16.9302 18.5029 15.3474C19.5605 13.7645 20.125 11.9036 20.125 10C20.122 7.44822 19.107 5.00181 17.3026 3.19742C15.4982 1.39304 13.0518 0.37801 10.5 0.375ZM10.5 17.875C8.94248 17.875 7.41993 17.4131 6.12489 16.5478C4.82985 15.6825 3.82049 14.4526 3.22445 13.0136C2.62841 11.5747 2.47246 9.99126 2.77632 8.46366C3.08018 6.93606 3.8302 5.53287 4.93154 4.43153C6.03288 3.3302 7.43607 2.58017 8.96367 2.27632C10.4913 1.97246 12.0747 2.12841 13.5136 2.72445C14.9526 3.32049 16.1825 4.32985 17.0478 5.62488C17.9131 6.91992 18.375 8.44247 18.375 10C18.3727 12.0879 17.5423 14.0896 16.0659 15.5659C14.5896 17.0423 12.5879 17.8727 10.5 17.875ZM15.75 10C15.75 10.2321 15.6578 10.4546 15.4937 10.6187C15.3296 10.7828 15.1071 10.875 14.875 10.875H10.5C10.2679 10.875 10.0454 10.7828 9.88129 10.6187C9.71719 10.4546 9.625 10.2321 9.625 10V4.75C9.625 4.51794 9.71719 4.29538 9.88129 4.13128C10.0454 3.96719 10.2679 3.875 10.5 3.875C10.7321 3.875 10.9546 3.96719 11.1187 4.13128C11.2828 4.29538 11.375 4.51794 11.375 4.75V9.125H14.875C15.1071 9.125 15.3296 9.21719 15.4937 9.38128C15.6578 9.54538 15.75 9.76794 15.75 10Z" fill="#535761"/>
</svg>
